<mxfile host="app.diagrams.net" agent="Mozilla/5.0 (Windows NT 10.0; Win64; x64) AppleWebKit/537.36 (KHTML, like Gecko) Chrome/138.0.0.0 Safari/537.36" version="28.0.6">
  <diagram name="Страница — 1" id="MR8eHIhniS2sDBqqMqys">
    <mxGraphModel dx="1426" dy="785" grid="1" gridSize="10" guides="1" tooltips="1" connect="1" arrows="1" fold="1" page="1" pageScale="1" pageWidth="1654" pageHeight="1169" math="0" shadow="0">
      <root>
        <mxCell id="0" />
        <mxCell id="1" parent="0" />
        <mxCell id="JMFXplQJ-bU3Fhh0a31A-17" value="" style="rounded=0;whiteSpace=wrap;html=1;" parent="1" vertex="1">
          <mxGeometry x="1010" y="370" width="120" height="60" as="geometry" />
        </mxCell>
        <mxCell id="JMFXplQJ-bU3Fhh0a31A-16" value="" style="rounded=0;whiteSpace=wrap;html=1;" parent="1" vertex="1">
          <mxGeometry x="1010" y="252" width="130" height="58" as="geometry" />
        </mxCell>
        <mxCell id="JMFXplQJ-bU3Fhh0a31A-15" value="" style="rounded=0;whiteSpace=wrap;html=1;" parent="1" vertex="1">
          <mxGeometry x="1010" y="130" width="140" height="60" as="geometry" />
        </mxCell>
        <mxCell id="JMFXplQJ-bU3Fhh0a31A-1" value="&lt;span class=&quot;docData;DOCY;v5;2336;BQiAAgAAEYQCAAAGiAIAAANPAwAABZIIAAAAAAAAAAAAAAAAAAAAAAAAAAAAAAAAAAAAAAAAAAAAAAAAAAAAAAAAAAAAAAAAAAAAAAAAAAAAAAAAAAAAAAAAAAAAAAAAAAAAAAAAAAAAAAAAAAAAAAAAAAAAAAAAAAAAAAAAAAAAAAAAAAAAAAAAAAAAAAAAAAAAAAAAAAAAAAAAAAAAAAAAAAAAAAAAAAAAAAAAAAAAAAAAAAAAAAAAAAAAAAAAAAAAAAAAAAAAAAAAAAAAAAAAAAAAAAAAAAAAAAAAAAAAAAAAAAAAAAAAAAAAAAAAAAAAAAAAAAAAAAAAAAAAAAAAAAAAAAAAAAAAAAAAAAAAAAAAAAAAAAAAAAAAAAAAAAAAAAAAAAAAAAAAAAAAAAAAAAAAAAAAAAAAAAAAAAAAAAAAAAAAAAAAAAAAAAAAAAAAAAAAAAAAAAAAAAAAAAAAAAAAAAAAAAAAAAAAAAAAAAAAAAAAAAAAAAAAAAAAAAAAAAAAAAAAAAAAAAAAAAAAAAAAAAAAAAAAAAAAAAAAAAAAAAAAAAAAAAAAAAAAAAAAAAAAAAAAAAAAAAAAAAAAAAAAAAAAAAAAAAAAAAAAAAAAAAAAAAAAAAAAAAAAAAAAAAAAAAAAAAAAAAAAAAAAAAAAAAAAAAAAAAAAAAAAAAAAAAAAAAAAAAAAAAAAAAAAAAAAAAAAAAAAAAAAAAAAAAAAAAAAAAAAAAAAAAAAAAAAAAAAAAAAAAAAAAAAAAAAAAAAAAAAAAAAAAAAAAAAAAAAAAAAAAAAAAAAAAAAAAAAAAAAAAAAAAAAAAAAAAAAAAAAAAAAAAAAAAAAAAAAAAAAAAAAwwAAAAC+AAAAASoAAAAWBgwAAAAXBAAAAAAYBAEAAAABBgAAAAAJBgAAAAAaBgAAAAAbBgAAAAACigAAAAUhAAAAAQYAAAAAAQEUAQEIEQAAAAAMAAAAUwBhAG0AcABsAGUABRcAAAABBgAAAAABARQBAQgHAAAAAAIAAAAgAAUlAAAAAQYAAAAAAQEUAQEIFQAAAAAQAAAAVAByAGEAYwBrAGkAbgBnAAUKAAAAAQAAAAAIAAAAAAUKAAAACAUAAAANAAAAAD8FAAAAJAUAAAEfBQAAAgQAAAAAAAAABBEFAAAFgAAAABgGBgAAABkBAAAADSUBCggGFwAAAAkGAAAACwEAAAAACQcAAAAKAgAAAC4ADQQBAAAADgEBDwY2AAAAAQYMAAAAJATQAgAAJgSY/v//CQYAAAAAEQYSAAAAEgYMAAAAKwEFKgTQAgAAIwEEGwYAAAAAEAYAAAAAHQQAAAAAIAEABbYAAAAYBgYAAAAZAQAAAAUlAQoIBgwAAAAJBwAAAAoCAAAAbwANBAEAAAAOAQEPBjYAAAABBgwAAAAkBKAFAAAmBJj+//8JBgAAAAARBhIAAAASBgwAAAArAQUqBKAFAAAjAQQbBgAAAAAQBkEAAAAEBhYAAABDAG8AdQByAGkAZQByACAATgBlAHcABQYWAAAAQwBvAHUAcgBpAGUAcgAgAE4AZQB3ABMBAQgEFAAAAB0EAQAAACABAAWuAAAAGAYGAAAAGQEAAAAFJQEKCAYMAAAACQcAAAAKAgAAAKfwDQQBAAAADgEBDwY2AAAAAQYMAAAAJARwCAAAJgSY/v//CQYAAAAAEQYSAAAAEgYMAAAAKwEFKgRwCAAAIwEEGwYAAAAAEAY5AAAABAYSAAAAVwBpAG4AZwBkAGkAbgBnAHMABQYSAAAAVwBpAG4AZwBkAGkAbgBnAHMAEwEBCAQUAAAAHQQCAAAAIAEABYAAAAAYBgYAAAAZAQAAAA0lAQoIBhcAAAAJBgAAAAsBAAAAAwkHAAAACgIAAAAuAA0EAQAAAA4BAQ8GNgAAAAEGDAAAACQEQAsAACYEmP7//wkGAAAAABEGEgAAABIGDAAAACsBBSoEQAsAACMBBBsGAAAAABAGAAAAAB0EAwAAACABAAWAAAAAGAYGAAAAGQEAAAANJQEKCAYXAAAACQYAAAALAQAAAAQJBwAAAAoCAAAALgANBAEAAAAOAQEPBjYAAAABBgwAAAAkBBAOAAAmBJj+//8JBgAAAAARBhIAAAASBgwAAAArAQUqBBAOAAAjAQQbBgAAAAAQBgAAAAAdBAQAAAAgAQAFgAAAABgGBgAAABkBAAAADSUBCggGFwAAAAkGAAAACwEAAAAFCQcAAAAKAgAAAC4ADQQBAAAADgEBDwY2AAAAAQYMAAAAJATgEAAAJgSY/v//CQYAAAAAEQYSAAAAEgYMAAAAKwEFKgTgEAAAIwEEGwYAAAAAEAYAAAAAHQQFAAAAIAEABYAAAAAYBgYAAAAZAQAAAA0lAQoIBhcAAAAJBgAAAAsBAAAABgkHAAAACgIAAAAuAA0EAQAAAA4BAQ8GNgAAAAEGDAAAACQEsBMAACYEmP7//wkGAAAAABEGEgAAABIGDAAAACsBBSoEsBMAACMBBBsGAAAAABAGAAAAAB0EBgAAACABAAWAAAAAGAYGAAAAGQEAAAANJQEKCAYXAAAACQYAAAALAQAAAAcJBwAAAAoCAAAALgANBAEAAAAOAQEPBjYAAAABBgwAAAAkBIAWAAAmBJj+//8JBgAAAAARBhIAAAASBgwAAAArAQUqBIAWAAAjAQQbBgAAAAAQBgAAAAAdBAcAAAAgAQAFgAAAABgGBgAAABkBAAAADSUBCggGFwAAAAkGAAAACwEAAAAICQcAAAAKAgAAAC4ADQQBAAAADgEBDwY2AAAAAQYMAAAAJARQGQAAJgSY/v//CQYAAAAAEQYSAAAAEgYMAAAAKwEFKgRQGQAAIwEEGwYAAAAAEAYAAAAAHQQIAAAAIAEAEREAAAASDAAAABMEAAAAABQEAQAAAIoAAAAALQAAAAEGAAAAAAkGGwAAACcEFgEAAAsBARwBACgEAAAAAB0BACkEoAAAABsGAAAAAAFOAAAAKAEHKQEHKgEHKwEFEwEBCAQYAAAAFgQYAAAAGQYKAAAAcgB1AC0AUgBVABoGCgAAAGEAcgAtAFMAQQAbBgoAAABlAG4ALQBVAFMALgEDAgAAAAA=&quot; style=&quot;font-family: Calibri; font-size: 12pt;&quot;&gt;Sample&lt;/span&gt;&lt;span style=&quot;font-family: Calibri; font-size: 12pt; background-color: transparent; color: light-dark(rgb(0, 0, 0), rgb(255, 255, 255));&quot;&gt;Tracking&lt;/span&gt;" style="rounded=0;whiteSpace=wrap;html=1;" parent="1" vertex="1">
          <mxGeometry x="1000" y="140" width="140" height="60" as="geometry" />
        </mxCell>
        <mxCell id="JMFXplQJ-bU3Fhh0a31A-2" value="DB" style="shape=cylinder3;whiteSpace=wrap;html=1;boundedLbl=1;backgroundOutline=1;size=15;" parent="1" vertex="1">
          <mxGeometry x="1168" y="130" width="60" height="70" as="geometry" />
        </mxCell>
        <mxCell id="JMFXplQJ-bU3Fhh0a31A-3" value="" style="endArrow=classic;html=1;rounded=0;exitX=1;exitY=0.5;exitDx=0;exitDy=0;dashed=1;" parent="1" source="JMFXplQJ-bU3Fhh0a31A-1" edge="1">
          <mxGeometry width="50" height="50" relative="1" as="geometry">
            <mxPoint x="1118" y="220" as="sourcePoint" />
            <mxPoint x="1168" y="170" as="targetPoint" />
          </mxGeometry>
        </mxCell>
        <mxCell id="JMFXplQJ-bU3Fhh0a31A-4" value="&lt;font face=&quot;Calibri&quot;&gt;&lt;span style=&quot;font-size: 16px;&quot;&gt;Users&lt;/span&gt;&lt;/font&gt;" style="rounded=0;whiteSpace=wrap;html=1;" parent="1" vertex="1">
          <mxGeometry x="1000" y="260" width="131" height="60" as="geometry" />
        </mxCell>
        <mxCell id="JMFXplQJ-bU3Fhh0a31A-5" value="DB" style="shape=cylinder3;whiteSpace=wrap;html=1;boundedLbl=1;backgroundOutline=1;size=15;" parent="1" vertex="1">
          <mxGeometry x="1168" y="250" width="60" height="70" as="geometry" />
        </mxCell>
        <mxCell id="JMFXplQJ-bU3Fhh0a31A-6" value="" style="endArrow=classic;html=1;rounded=0;exitX=1;exitY=0.5;exitDx=0;exitDy=0;" parent="1" edge="1">
          <mxGeometry width="50" height="50" relative="1" as="geometry">
            <mxPoint x="1131" y="289" as="sourcePoint" />
            <mxPoint x="1168" y="289" as="targetPoint" />
          </mxGeometry>
        </mxCell>
        <mxCell id="JMFXplQJ-bU3Fhh0a31A-8" value="&lt;font face=&quot;Calibri&quot;&gt;&lt;span style=&quot;font-size: 16px;&quot;&gt;Reports&lt;/span&gt;&lt;/font&gt;" style="rounded=0;whiteSpace=wrap;html=1;" parent="1" vertex="1">
          <mxGeometry x="1000" y="380" width="120" height="60" as="geometry" />
        </mxCell>
        <mxCell id="JMFXplQJ-bU3Fhh0a31A-9" value="DB" style="shape=cylinder3;whiteSpace=wrap;html=1;boundedLbl=1;backgroundOutline=1;size=15;" parent="1" vertex="1">
          <mxGeometry x="1168" y="370" width="60" height="70" as="geometry" />
        </mxCell>
        <mxCell id="JMFXplQJ-bU3Fhh0a31A-10" value="" style="endArrow=classic;html=1;rounded=0;exitX=1;exitY=0.412;exitDx=0;exitDy=0;exitPerimeter=0;entryX=0;entryY=0.5;entryDx=0;entryDy=0;entryPerimeter=0;dashed=1;" parent="1" edge="1">
          <mxGeometry width="50" height="50" relative="1" as="geometry">
            <mxPoint x="1120" y="409.72" as="sourcePoint" />
            <mxPoint x="1168" y="410" as="targetPoint" />
          </mxGeometry>
        </mxCell>
        <mxCell id="JMFXplQJ-bU3Fhh0a31A-13" value="&lt;font face=&quot;Calibri&quot;&gt;&lt;span style=&quot;font-size: 16px;&quot;&gt;API Gateway / Load Balancer&lt;br&gt;&lt;/span&gt;&lt;/font&gt;" style="rounded=0;whiteSpace=wrap;html=1;" parent="1" vertex="1">
          <mxGeometry x="320" y="277" width="160" height="83.5" as="geometry" />
        </mxCell>
        <mxCell id="JMFXplQJ-bU3Fhh0a31A-18" value="" style="endArrow=none;dashed=1;html=1;dashPattern=1 3;strokeWidth=2;rounded=0;" parent="1" edge="1">
          <mxGeometry width="50" height="50" relative="1" as="geometry">
            <mxPoint x="960" y="540" as="sourcePoint" />
            <mxPoint x="960" y="110" as="targetPoint" />
            <Array as="points">
              <mxPoint x="960" y="300" />
            </Array>
          </mxGeometry>
        </mxCell>
        <mxCell id="JMFXplQJ-bU3Fhh0a31A-19" value="" style="endArrow=none;dashed=1;html=1;dashPattern=1 3;strokeWidth=2;rounded=0;" parent="1" edge="1">
          <mxGeometry width="50" height="50" relative="1" as="geometry">
            <mxPoint x="1360" y="540" as="sourcePoint" />
            <mxPoint x="1360" y="110" as="targetPoint" />
          </mxGeometry>
        </mxCell>
        <mxCell id="JMFXplQJ-bU3Fhh0a31A-20" value="" style="endArrow=none;dashed=1;html=1;dashPattern=1 3;strokeWidth=2;rounded=0;" parent="1" edge="1">
          <mxGeometry width="50" height="50" relative="1" as="geometry">
            <mxPoint x="960" y="110" as="sourcePoint" />
            <mxPoint x="1360" y="110" as="targetPoint" />
          </mxGeometry>
        </mxCell>
        <mxCell id="JMFXplQJ-bU3Fhh0a31A-21" value="" style="endArrow=none;dashed=1;html=1;dashPattern=1 3;strokeWidth=2;rounded=0;" parent="1" edge="1">
          <mxGeometry width="50" height="50" relative="1" as="geometry">
            <mxPoint x="960" y="540" as="sourcePoint" />
            <mxPoint x="1360" y="540" as="targetPoint" />
          </mxGeometry>
        </mxCell>
        <mxCell id="2iv-uvPcEU-dz8olmL9e-1" value="Exchange &quot;samples&quot;" style="rounded=1;whiteSpace=wrap;html=1;" parent="1" vertex="1">
          <mxGeometry x="560" y="240" width="120" height="20" as="geometry" />
        </mxCell>
        <mxCell id="2iv-uvPcEU-dz8olmL9e-2" value="Queue &quot;samples&quot;" style="rounded=1;whiteSpace=wrap;html=1;" parent="1" vertex="1">
          <mxGeometry x="720" y="240" width="120" height="20" as="geometry" />
        </mxCell>
        <mxCell id="2iv-uvPcEU-dz8olmL9e-4" value="Exchange &quot;users&quot;" style="rounded=1;whiteSpace=wrap;html=1;" parent="1" vertex="1">
          <mxGeometry x="560" y="300" width="120" height="20" as="geometry" />
        </mxCell>
        <mxCell id="2iv-uvPcEU-dz8olmL9e-5" value="Queue &quot;users&quot;" style="rounded=1;whiteSpace=wrap;html=1;" parent="1" vertex="1">
          <mxGeometry x="720" y="300" width="120" height="20" as="geometry" />
        </mxCell>
        <mxCell id="2iv-uvPcEU-dz8olmL9e-8" value="Exchange &quot;reports&quot;" style="rounded=1;whiteSpace=wrap;html=1;" parent="1" vertex="1">
          <mxGeometry x="560" y="360.5" width="120" height="20" as="geometry" />
        </mxCell>
        <mxCell id="2iv-uvPcEU-dz8olmL9e-9" value="Queue &quot;reports&quot;" style="rounded=1;whiteSpace=wrap;html=1;" parent="1" vertex="1">
          <mxGeometry x="720" y="360" width="120" height="20" as="geometry" />
        </mxCell>
        <mxCell id="2iv-uvPcEU-dz8olmL9e-14" value="" style="endArrow=classic;html=1;rounded=0;exitX=1;exitY=0.5;exitDx=0;exitDy=0;endFill=1;" parent="1" source="2iv-uvPcEU-dz8olmL9e-2" edge="1">
          <mxGeometry width="50" height="50" relative="1" as="geometry">
            <mxPoint x="830.5799999999999" y="258.1" as="sourcePoint" />
            <mxPoint x="1000" y="170" as="targetPoint" />
          </mxGeometry>
        </mxCell>
        <mxCell id="2iv-uvPcEU-dz8olmL9e-15" value="" style="endArrow=classic;html=1;rounded=0;exitX=1;exitY=0.5;exitDx=0;exitDy=0;endFill=1;entryX=0;entryY=0.5;entryDx=0;entryDy=0;" parent="1" source="2iv-uvPcEU-dz8olmL9e-5" edge="1" target="JMFXplQJ-bU3Fhh0a31A-4">
          <mxGeometry width="50" height="50" relative="1" as="geometry">
            <mxPoint x="829.71" y="298.89625" as="sourcePoint" />
            <mxPoint x="1000" y="270" as="targetPoint" />
          </mxGeometry>
        </mxCell>
        <mxCell id="2iv-uvPcEU-dz8olmL9e-16" value="" style="endArrow=classic;html=1;rounded=0;exitX=1;exitY=0.5;exitDx=0;exitDy=0;entryX=0;entryY=0.5;entryDx=0;entryDy=0;endFill=1;" parent="1" source="2iv-uvPcEU-dz8olmL9e-9" target="JMFXplQJ-bU3Fhh0a31A-8" edge="1">
          <mxGeometry width="50" height="50" relative="1" as="geometry">
            <mxPoint x="830.5799999999999" y="350.49625000000003" as="sourcePoint" />
            <mxPoint x="1000" y="370" as="targetPoint" />
          </mxGeometry>
        </mxCell>
        <mxCell id="2iv-uvPcEU-dz8olmL9e-21" value="" style="endArrow=none;html=1;rounded=0;entryX=0;entryY=0.5;entryDx=0;entryDy=0;exitX=1;exitY=0.5;exitDx=0;exitDy=0;" parent="1" source="2iv-uvPcEU-dz8olmL9e-1" target="2iv-uvPcEU-dz8olmL9e-2" edge="1">
          <mxGeometry width="50" height="50" relative="1" as="geometry">
            <mxPoint x="660" y="232" as="sourcePoint" />
            <mxPoint x="720" y="185" as="targetPoint" />
          </mxGeometry>
        </mxCell>
        <mxCell id="2iv-uvPcEU-dz8olmL9e-22" value="" style="endArrow=none;html=1;rounded=0;entryX=0;entryY=0.5;entryDx=0;entryDy=0;exitX=1;exitY=0.5;exitDx=0;exitDy=0;" parent="1" source="2iv-uvPcEU-dz8olmL9e-4" target="2iv-uvPcEU-dz8olmL9e-5" edge="1">
          <mxGeometry width="50" height="50" relative="1" as="geometry">
            <mxPoint x="680" y="305.86" as="sourcePoint" />
            <mxPoint x="710" y="305.86" as="targetPoint" />
          </mxGeometry>
        </mxCell>
        <mxCell id="2iv-uvPcEU-dz8olmL9e-24" value="" style="endArrow=none;html=1;rounded=0;entryX=0;entryY=0.5;entryDx=0;entryDy=0;exitX=1;exitY=0.5;exitDx=0;exitDy=0;" parent="1" source="2iv-uvPcEU-dz8olmL9e-8" target="2iv-uvPcEU-dz8olmL9e-9" edge="1">
          <mxGeometry width="50" height="50" relative="1" as="geometry">
            <mxPoint x="680" y="350.86" as="sourcePoint" />
            <mxPoint x="710" y="350.86" as="targetPoint" />
          </mxGeometry>
        </mxCell>
        <mxCell id="2iv-uvPcEU-dz8olmL9e-25" value="Client" style="rounded=0;whiteSpace=wrap;html=1;" parent="1" vertex="1">
          <mxGeometry x="200" y="301" width="80" height="40" as="geometry" />
        </mxCell>
        <mxCell id="qH2FaaacxqXajxHQihfv-1" value="" style="endArrow=classic;html=1;rounded=0;entryX=0.001;entryY=0.516;entryDx=0;entryDy=0;entryPerimeter=0;exitX=1.001;exitY=0.474;exitDx=0;exitDy=0;exitPerimeter=0;endFill=1;" parent="1" source="2iv-uvPcEU-dz8olmL9e-25" edge="1" target="JMFXplQJ-bU3Fhh0a31A-13">
          <mxGeometry width="50" height="50" relative="1" as="geometry">
            <mxPoint x="290" y="330" as="sourcePoint" />
            <mxPoint x="320" y="316" as="targetPoint" />
          </mxGeometry>
        </mxCell>
        <mxCell id="qH2FaaacxqXajxHQihfv-2" value="" style="endArrow=classic;html=1;rounded=0;exitX=1;exitY=0.5;exitDx=0;exitDy=0;entryX=0.002;entryY=0.382;entryDx=0;entryDy=0;entryPerimeter=0;endFill=1;" parent="1" target="2iv-uvPcEU-dz8olmL9e-1" edge="1">
          <mxGeometry width="50" height="50" relative="1" as="geometry">
            <mxPoint x="480" y="301" as="sourcePoint" />
            <mxPoint x="520" y="296" as="targetPoint" />
          </mxGeometry>
        </mxCell>
        <mxCell id="qH2FaaacxqXajxHQihfv-3" value="" style="endArrow=classic;html=1;rounded=0;exitX=1;exitY=0.5;exitDx=0;exitDy=0;entryX=-0.003;entryY=0.451;entryDx=0;entryDy=0;entryPerimeter=0;endFill=1;" parent="1" target="2iv-uvPcEU-dz8olmL9e-4" edge="1">
          <mxGeometry width="50" height="50" relative="1" as="geometry">
            <mxPoint x="480" y="316" as="sourcePoint" />
            <mxPoint x="548" y="269" as="targetPoint" />
          </mxGeometry>
        </mxCell>
        <mxCell id="qH2FaaacxqXajxHQihfv-4" value="" style="endArrow=classic;html=1;rounded=0;exitX=1;exitY=0.5;exitDx=0;exitDy=0;entryX=-0.001;entryY=0.43;entryDx=0;entryDy=0;entryPerimeter=0;endFill=1;" parent="1" target="2iv-uvPcEU-dz8olmL9e-8" edge="1">
          <mxGeometry width="50" height="50" relative="1" as="geometry">
            <mxPoint x="480" y="350" as="sourcePoint" />
            <mxPoint x="548" y="303" as="targetPoint" />
          </mxGeometry>
        </mxCell>
        <mxCell id="IkTVHhph8rLzIfLFzV_K-2" value="Kibana" style="rounded=0;whiteSpace=wrap;html=1;" parent="1" vertex="1">
          <mxGeometry x="1240" y="480" width="80" height="40" as="geometry" />
        </mxCell>
        <mxCell id="IkTVHhph8rLzIfLFzV_K-3" value="Logstash" style="rounded=0;whiteSpace=wrap;html=1;" parent="1" vertex="1">
          <mxGeometry x="1000" y="480" width="80" height="40" as="geometry" />
        </mxCell>
        <mxCell id="IkTVHhph8rLzIfLFzV_K-4" value="Elasticsearch" style="rounded=0;whiteSpace=wrap;html=1;" parent="1" vertex="1">
          <mxGeometry x="1120" y="480" width="80" height="40" as="geometry" />
        </mxCell>
        <mxCell id="IkTVHhph8rLzIfLFzV_K-6" value="" style="endArrow=classic;html=1;rounded=0;entryX=1;entryY=0.5;entryDx=0;entryDy=0;exitX=1;exitY=0.5;exitDx=0;exitDy=0;" parent="1" edge="1">
          <mxGeometry width="50" height="50" relative="1" as="geometry">
            <mxPoint x="1080" y="499.76" as="sourcePoint" />
            <mxPoint x="1120" y="499.76" as="targetPoint" />
          </mxGeometry>
        </mxCell>
        <mxCell id="IkTVHhph8rLzIfLFzV_K-8" value="Filebeat" style="rounded=0;whiteSpace=wrap;html=1;" parent="1" vertex="1">
          <mxGeometry x="1000" y="180" width="50" height="20" as="geometry" />
        </mxCell>
        <mxCell id="IkTVHhph8rLzIfLFzV_K-9" value="Filebeat" style="rounded=0;whiteSpace=wrap;html=1;" parent="1" vertex="1">
          <mxGeometry x="1000" y="300" width="50" height="20" as="geometry" />
        </mxCell>
        <mxCell id="IkTVHhph8rLzIfLFzV_K-10" value="Filebeat" style="rounded=0;whiteSpace=wrap;html=1;" parent="1" vertex="1">
          <mxGeometry x="1000" y="420" width="50" height="20" as="geometry" />
        </mxCell>
        <mxCell id="IkTVHhph8rLzIfLFzV_K-11" value="" style="endArrow=none;html=1;rounded=0;" parent="1" edge="1">
          <mxGeometry width="50" height="50" relative="1" as="geometry">
            <mxPoint x="980" y="190" as="sourcePoint" />
            <mxPoint x="1000" y="190" as="targetPoint" />
          </mxGeometry>
        </mxCell>
        <mxCell id="IkTVHhph8rLzIfLFzV_K-12" value="" style="endArrow=none;html=1;rounded=0;" parent="1" edge="1">
          <mxGeometry width="50" height="50" relative="1" as="geometry">
            <mxPoint x="980" y="309.76" as="sourcePoint" />
            <mxPoint x="1000" y="309.76" as="targetPoint" />
          </mxGeometry>
        </mxCell>
        <mxCell id="IkTVHhph8rLzIfLFzV_K-13" value="" style="endArrow=none;html=1;rounded=0;" parent="1" edge="1">
          <mxGeometry width="50" height="50" relative="1" as="geometry">
            <mxPoint x="980" y="430" as="sourcePoint" />
            <mxPoint x="1000" y="430" as="targetPoint" />
          </mxGeometry>
        </mxCell>
        <mxCell id="IkTVHhph8rLzIfLFzV_K-14" value="" style="endArrow=none;html=1;rounded=0;" parent="1" edge="1">
          <mxGeometry width="50" height="50" relative="1" as="geometry">
            <mxPoint x="980" y="500" as="sourcePoint" />
            <mxPoint x="980" y="190" as="targetPoint" />
          </mxGeometry>
        </mxCell>
        <mxCell id="IkTVHhph8rLzIfLFzV_K-15" value="" style="endArrow=none;html=1;rounded=0;" parent="1" edge="1">
          <mxGeometry width="50" height="50" relative="1" as="geometry">
            <mxPoint x="980" y="499.86" as="sourcePoint" />
            <mxPoint x="1000" y="499.86" as="targetPoint" />
          </mxGeometry>
        </mxCell>
        <mxCell id="IkTVHhph8rLzIfLFzV_K-16" value="" style="endArrow=none;dashed=1;html=1;dashPattern=1 3;strokeWidth=2;rounded=0;" parent="1" edge="1">
          <mxGeometry width="50" height="50" relative="1" as="geometry">
            <mxPoint x="540" y="401.5" as="sourcePoint" />
            <mxPoint x="540" y="218.5" as="targetPoint" />
          </mxGeometry>
        </mxCell>
        <mxCell id="IkTVHhph8rLzIfLFzV_K-17" value="" style="endArrow=none;dashed=1;html=1;dashPattern=1 3;strokeWidth=2;rounded=0;" parent="1" edge="1">
          <mxGeometry width="50" height="50" relative="1" as="geometry">
            <mxPoint x="860" y="401.5" as="sourcePoint" />
            <mxPoint x="860" y="218.5" as="targetPoint" />
          </mxGeometry>
        </mxCell>
        <mxCell id="IkTVHhph8rLzIfLFzV_K-18" value="" style="endArrow=none;dashed=1;html=1;dashPattern=1 3;strokeWidth=2;rounded=0;" parent="1" edge="1">
          <mxGeometry width="50" height="50" relative="1" as="geometry">
            <mxPoint x="540" y="400" as="sourcePoint" />
            <mxPoint x="860" y="402" as="targetPoint" />
          </mxGeometry>
        </mxCell>
        <mxCell id="IkTVHhph8rLzIfLFzV_K-19" value="" style="endArrow=none;dashed=1;html=1;dashPattern=1 3;strokeWidth=2;rounded=0;" parent="1" edge="1">
          <mxGeometry width="50" height="50" relative="1" as="geometry">
            <mxPoint x="540" y="220" as="sourcePoint" />
            <mxPoint x="860" y="222" as="targetPoint" />
          </mxGeometry>
        </mxCell>
        <mxCell id="IkTVHhph8rLzIfLFzV_K-20" value="RabbitMQ" style="text;strokeColor=none;fillColor=none;align=left;verticalAlign=middle;spacingLeft=4;spacingRight=4;overflow=hidden;points=[[0,0.5],[1,0.5]];portConstraint=eastwest;rotatable=0;whiteSpace=wrap;html=1;" parent="1" vertex="1">
          <mxGeometry x="540" y="190" width="80" height="30" as="geometry" />
        </mxCell>
        <mxCell id="COiDpQ5gSlwXRChFaRDr-2" value="Redis" style="rounded=0;whiteSpace=wrap;html=1;" parent="1" vertex="1">
          <mxGeometry x="1260" y="261" width="80" height="40" as="geometry" />
        </mxCell>
        <mxCell id="COiDpQ5gSlwXRChFaRDr-5" value="" style="endArrow=classic;html=1;rounded=0;exitX=1;exitY=1;exitDx=0;exitDy=0;entryX=0;entryY=0;entryDx=0;entryDy=0;" parent="1" source="JMFXplQJ-bU3Fhh0a31A-1" target="COiDpQ5gSlwXRChFaRDr-2" edge="1">
          <mxGeometry width="50" height="50" relative="1" as="geometry">
            <mxPoint x="1270" y="290" as="sourcePoint" />
            <mxPoint x="1320" y="240" as="targetPoint" />
          </mxGeometry>
        </mxCell>
        <mxCell id="COiDpQ5gSlwXRChFaRDr-6" value="" style="endArrow=classic;html=1;rounded=0;exitX=0.917;exitY=0.167;exitDx=0;exitDy=0;exitPerimeter=0;entryX=0;entryY=1;entryDx=0;entryDy=0;" parent="1" source="JMFXplQJ-bU3Fhh0a31A-17" target="COiDpQ5gSlwXRChFaRDr-2" edge="1">
          <mxGeometry width="50" height="50" relative="1" as="geometry">
            <mxPoint x="1060" y="330" as="sourcePoint" />
            <mxPoint x="1320" y="280" as="targetPoint" />
          </mxGeometry>
        </mxCell>
        <mxCell id="o75RpbwZ-oh0Zh2VTwOQ-1" value="" style="endArrow=classic;html=1;rounded=0;exitX=1.002;exitY=0.538;exitDx=0;exitDy=0;exitPerimeter=0;entryX=0.521;entryY=-0.007;entryDx=0;entryDy=0;entryPerimeter=0;" edge="1" parent="1" source="JMFXplQJ-bU3Fhh0a31A-2" target="COiDpQ5gSlwXRChFaRDr-2">
          <mxGeometry width="50" height="50" relative="1" as="geometry">
            <mxPoint x="1230" y="170" as="sourcePoint" />
            <mxPoint x="1300" y="260" as="targetPoint" />
          </mxGeometry>
        </mxCell>
        <mxCell id="o75RpbwZ-oh0Zh2VTwOQ-2" value="" style="endArrow=classic;html=1;rounded=0;exitX=1.002;exitY=0.538;exitDx=0;exitDy=0;exitPerimeter=0;entryX=0.5;entryY=1;entryDx=0;entryDy=0;" edge="1" parent="1" target="COiDpQ5gSlwXRChFaRDr-2">
          <mxGeometry width="50" height="50" relative="1" as="geometry">
            <mxPoint x="1228" y="410" as="sourcePoint" />
            <mxPoint x="1310" y="440" as="targetPoint" />
          </mxGeometry>
        </mxCell>
        <mxCell id="o75RpbwZ-oh0Zh2VTwOQ-3" value="" style="endArrow=classic;html=1;rounded=0;entryX=1;entryY=0.5;entryDx=0;entryDy=0;exitX=1;exitY=0.5;exitDx=0;exitDy=0;" edge="1" parent="1">
          <mxGeometry width="50" height="50" relative="1" as="geometry">
            <mxPoint x="1200" y="499.71" as="sourcePoint" />
            <mxPoint x="1240" y="499.71" as="targetPoint" />
          </mxGeometry>
        </mxCell>
      </root>
    </mxGraphModel>
  </diagram>
</mxfile>
